<?xml version="1.0" encoding="iso-8859-1"?>
<!-- Generator: Adobe Illustrator 18.0.0, SVG Export Plug-In . SVG Version: 6.00 Build 0)  -->
<!DOCTYPE svg PUBLIC "-//W3C//DTD SVG 1.1//EN" "http://www.w3.org/Graphics/SVG/1.1/DTD/svg11.dtd">
<svg version="1.1" id="Capa_1" xmlns="http://www.w3.org/2000/svg" xmlns:xlink="http://www.w3.org/1999/xlink" x="0px" y="0px"
	 viewBox="0 0 380 380" style="enable-background:new 0 0 380 380;" xml:space="preserve">
<path d="M356.746,59.295c-6.061-11.502-17.096-19.214-29.68-19.214H213.175c-8.905,0-17.034,3.863-23.175,10.197
	c-6.141-6.334-14.271-10.197-23.176-10.197H52.934c-12.584,0-23.619,7.712-29.68,19.214C9.631,65.664,0,81.018,0,98.911v198.237
	c0,23.584,16.719,42.771,37.269,42.771h126.907c10.019,0,19.12-4.568,25.824-11.975c6.705,7.406,15.805,11.975,25.824,11.975H342.73
	c20.55,0,37.27-19.186,37.27-42.771V98.911C380,81.018,370.369,65.664,356.746,59.295z M213.175,62.973h113.891
	c6.357,0,11.729,7.628,11.729,16.66v192.696c0,9.034-5.372,16.664-11.729,16.664H213.175c-6.357,0-11.729-7.63-11.729-16.664V79.633
	C201.446,70.601,206.818,62.973,213.175,62.973z M41.205,79.633c0-9.032,5.372-16.66,11.729-16.66h113.89
	c6.357,0,11.73,7.628,11.73,16.66v192.696c0,9.034-5.373,16.664-11.73,16.664H52.934c-6.357,0-11.729-7.63-11.729-16.664V79.633z"/>
<g>
</g>
<g>
</g>
<g>
</g>
<g>
</g>
<g>
</g>
<g>
</g>
<g>
</g>
<g>
</g>
<g>
</g>
<g>
</g>
<g>
</g>
<g>
</g>
<g>
</g>
<g>
</g>
<g>
</g>
</svg>
