<?xml version="1.0" encoding="iso-8859-1"?>
<!-- Generator: Adobe Illustrator 18.0.0, SVG Export Plug-In . SVG Version: 6.00 Build 0)  -->
<!DOCTYPE svg PUBLIC "-//W3C//DTD SVG 1.1//EN" "http://www.w3.org/Graphics/SVG/1.1/DTD/svg11.dtd">
<svg version="1.1" id="Capa_1" xmlns="http://www.w3.org/2000/svg" xmlns:xlink="http://www.w3.org/1999/xlink" x="0px" y="0px"
	 viewBox="0 0 394.148 394.148" style="enable-background:new 0 0 394.148 394.148;" xml:space="preserve">
<path style="fill:#101010;" d="M197.074,0c-55.229,0-100,44.771-100,100c0,39.041,22.375,72.853,55,89.321v145.006v0.001
	c0,0.937,0.066,1.867,0.197,2.788c0.391,2.761,1.361,5.419,2.855,7.797l25.113,39.936c2.957,4.703,7.709,7.903,13.054,8.938
	c1.233,0.239,2.499,0.362,3.78,0.362c0.371,0,0.74-0.013,1.108-0.035c6.409-0.357,12.284-3.792,15.726-9.265l25.113-39.936
	c1.992-3.171,3.053-6.84,3.053-10.586V189.321c32.625-16.469,55-50.28,55-89.321C297.074,44.771,252.304,0,197.074,0z
	 M222.074,230.151h-4.692c-5.523,0-10,4.477-10,10c0,5.523,4.477,10,10,10h4.692v40h-4.692c-5.523,0-10,4.477-10,10
	c0,5.523,4.477,10,10,10h4.692v24.142l-22.826,36.299V199.973c7.865-0.168,15.508-1.24,22.826-3.123V230.151z M222.074,92.151h-50
	c-13.438,0-24.333-10.895-24.333-24.333s10.895-24.333,24.333-24.333h50c13.439,0,24.333,10.894,24.333,24.333
	S235.513,92.151,222.074,92.151z"/>
<g>
</g>
<g>
</g>
<g>
</g>
<g>
</g>
<g>
</g>
<g>
</g>
<g>
</g>
<g>
</g>
<g>
</g>
<g>
</g>
<g>
</g>
<g>
</g>
<g>
</g>
<g>
</g>
<g>
</g>
</svg>
